REM DIRINDEX 1\2,1\4,1\5,1\6,1\7,1\3\8,1\3\9,1\3\10
REM DIRNAME folder01,folder02,folder03,folder04,folder05,folder06,folder07,folder08,folder09,folder10
TITLE ""
FILE "DB4500_5th_1A_10.mp3" MP3
  TRACK 01 AUDIO
    TITLE "8:cjc113_0433"
    INDEX 01 00:00:00
  TRACK 02 AUDIO
    TITLE "0:"
    INDEX 01 00:01:09
  TRACK 03 AUDIO
    TITLE "9:cjc113_0434"
    INDEX 01 00:01:28
  TRACK 04 AUDIO
    TITLE "0:"
    INDEX 01 00:03:17
  TRACK 05 AUDIO
    TITLE "10:cjc113_0435"
    INDEX 01 00:03:39
  TRACK 06 AUDIO
    TITLE "0:"
    INDEX 01 00:06:31
  TRACK 07 AUDIO
    TITLE "8:cjc113_0436"
    INDEX 01 00:07:00
  TRACK 08 AUDIO
    TITLE "0:"
    INDEX 01 00:08:15
  TRACK 09 AUDIO
    TITLE "9:cjc113_0437"
    INDEX 01 00:08:38
  TRACK 10 AUDIO
    TITLE "0:"
    INDEX 01 00:09:69
  TRACK 11 AUDIO
    TITLE "10:cjc113_0438"
    INDEX 01 00:10:18
  TRACK 12 AUDIO
    TITLE "0:"
    INDEX 01 00:12:63
  TRACK 13 AUDIO
    TITLE "8:cjc113_0439"
    INDEX 01 00:13:37
  TRACK 14 AUDIO
    TITLE "0:"
    INDEX 01 00:14:56
  TRACK 15 AUDIO
    TITLE "9:cjc113_0440"
    INDEX 01 00:15:03
  TRACK 16 AUDIO
    TITLE "0:"
    INDEX 01 00:16:22
  TRACK 17 AUDIO
    TITLE "10:cjc113_0441"
    INDEX 01 00:16:40
  TRACK 18 AUDIO
    TITLE "0:"
    INDEX 01 00:19:01
  TRACK 19 AUDIO
    TITLE "10:cjc113_0442"
    INDEX 01 00:19:32
  TRACK 20 AUDIO
    TITLE "0:"
    INDEX 01 00:21:47
  TRACK 21 AUDIO
    TITLE "8:cjc113_0443"
    INDEX 01 00:22:21
  TRACK 22 AUDIO
    TITLE "0:"
    INDEX 01 00:23:38
  TRACK 23 AUDIO
    TITLE "9:cjc113_0444"
    INDEX 01 00:23:59
  TRACK 24 AUDIO
    TITLE "0:"
    INDEX 01 00:25:31
  TRACK 25 AUDIO
    TITLE "10:cjc113_0445"
    INDEX 01 00:25:54
  TRACK 26 AUDIO
    TITLE "0:"
    INDEX 01 00:28:68
  TRACK 27 AUDIO
    TITLE "10:cjc113_0446"
    INDEX 01 00:29:40
  TRACK 28 AUDIO
    TITLE "0:"
    INDEX 01 00:32:21
  TRACK 29 AUDIO
    TITLE "8:cjc113_0447"
    INDEX 01 00:32:70
  TRACK 30 AUDIO
    TITLE "0:"
    INDEX 01 00:34:16
  TRACK 31 AUDIO
    TITLE "9:cjc113_0448"
    INDEX 01 00:34:42
  TRACK 32 AUDIO
    TITLE "0:"
    INDEX 01 00:35:51
  TRACK 33 AUDIO
    TITLE "10:cjc113_0449"
    INDEX 01 00:35:72
  TRACK 34 AUDIO
    TITLE "0:"
    INDEX 01 00:38:67
  TRACK 35 AUDIO
    TITLE "8:cjc113_0450"
    INDEX 01 00:39:37
  TRACK 36 AUDIO
    TITLE "0:"
    INDEX 01 00:40:48
  TRACK 37 AUDIO
    TITLE "9:cjc113_0451"
    INDEX 01 00:40:73
  TRACK 38 AUDIO
    TITLE "0:"
    INDEX 01 00:42:19
  TRACK 39 AUDIO
    TITLE "10:cjc113_0452"
    INDEX 01 00:42:41
  TRACK 40 AUDIO
    TITLE "0:"
    INDEX 01 00:45:28
  TRACK 41 AUDIO
    TITLE "8:cjc113_0453"
    INDEX 01 00:46:00
  TRACK 42 AUDIO
    TITLE "0:"
    INDEX 01 00:47:19
  TRACK 43 AUDIO
    TITLE "9:cjc113_0454"
    INDEX 01 00:47:42
  TRACK 44 AUDIO
    TITLE "0:"
    INDEX 01 00:48:63
  TRACK 45 AUDIO
    TITLE "10:cjc113_0455"
    INDEX 01 00:49:12
  TRACK 46 AUDIO
    TITLE "0:"
    INDEX 01 00:52:47
  TRACK 47 AUDIO
    TITLE "8:cjc113_0456"
    INDEX 01 00:53:17
  TRACK 48 AUDIO
    TITLE "0:"
    INDEX 01 00:54:21
  TRACK 49 AUDIO
    TITLE "9:cjc113_0457"
    INDEX 01 00:54:48
  TRACK 50 AUDIO
    TITLE "0:"
    INDEX 01 00:55:67
  TRACK 51 AUDIO
    TITLE "10:cjc113_0458"
    INDEX 01 00:56:16
  TRACK 52 AUDIO
    TITLE "0:"
    INDEX 01 00:59:53
  TRACK 53 AUDIO
    TITLE "8:cjc113_0459"
    INDEX 01 01:00:25
  TRACK 54 AUDIO
    TITLE "0:"
    INDEX 01 01:01:42
  TRACK 55 AUDIO
    TITLE "9:cjc113_0460"
    INDEX 01 01:01:66
  TRACK 56 AUDIO
    TITLE "0:"
    INDEX 01 01:02:73
  TRACK 57 AUDIO
    TITLE "10:cjc113_0461"
    INDEX 01 01:03:20
  TRACK 58 AUDIO
    TITLE "0:"
    INDEX 01 01:06:22
  TRACK 59 AUDIO
    TITLE "8:cjc113_0462"
    INDEX 01 01:06:69
  TRACK 60 AUDIO
    TITLE "0:"
    INDEX 01 01:08:09
  TRACK 61 AUDIO
    TITLE "9:cjc113_0463"
    INDEX 01 01:08:33
  TRACK 62 AUDIO
    TITLE "0:"
    INDEX 01 01:09:46
  TRACK 63 AUDIO
    TITLE "10:cjc113_0464"
    INDEX 01 01:09:71
  TRACK 64 AUDIO
    TITLE "0:"
    INDEX 01 01:14:33
  TRACK 65 AUDIO
    TITLE "8:cjc113_0465"
    INDEX 01 01:15:05
  TRACK 66 AUDIO
    TITLE "0:"
    INDEX 01 01:16:07
  TRACK 67 AUDIO
    TITLE "9:cjc113_0466"
    INDEX 01 01:16:30
  TRACK 68 AUDIO
    TITLE "0:"
    INDEX 01 01:17:49
  TRACK 69 AUDIO
    TITLE "10:cjc113_0467"
    INDEX 01 01:17:73
  TRACK 70 AUDIO
    TITLE "0:"
    INDEX 01 01:20:44
  TRACK 71 AUDIO
    TITLE "8:cjc113_0468"
    INDEX 01 01:21:18
  TRACK 72 AUDIO
    TITLE "0:"
    INDEX 01 01:22:31
  TRACK 73 AUDIO
    TITLE "9:cjc113_0469"
    INDEX 01 01:22:52
  TRACK 74 AUDIO
    TITLE "0:"
    INDEX 01 01:23:58
  TRACK 75 AUDIO
    TITLE "10:cjc113_0470"
    INDEX 01 01:24:08
  TRACK 76 AUDIO
    TITLE "0:"
    INDEX 01 01:27:46
